<svg height="494" width="720" xmlns="http://www.w3.org/2000/svg">
<rect height="494" fill="#555" width="720"></rect>
<text fill="#7f7" font-family="Courier New" font-size="12" xml:space="preserve">
<tspan x="10" y="26">└─┬ google-calendar@1.3.2 </tspan>
<tspan x="10" y="42">  ├─┬ express@3.3.8 </tspan>
<tspan x="10" y="58">  │ ├── buffer-crc32@0.2.1 </tspan>
<tspan x="10" y="74">  │ ├─┬ commander@1.2.0 </tspan>
<tspan x="10" y="90">  │ │ └── keypress@0.1.0 </tspan>
<tspan x="10" y="106">  │ ├─┬ connect@2.8.8 </tspan>
<tspan x="10" y="122">  │ │ ├── bytes@0.2.0 </tspan>
<tspan x="10" y="138">  │ │ ├── formidable@1.0.14 </tspan>
<tspan x="10" y="154">  │ │ ├── qs@0.6.5 </tspan>
<tspan x="10" y="170">  │ │ └── uid2@0.0.2 </tspan>
<tspan x="10" y="186">  │ ├── cookie@0.1.0 </tspan>
<tspan x="10" y="202">  │ ├── cookie-signature@1.0.1 </tspan>
<tspan x="10" y="218">  │ ├─┬ debug@2.6.3 </tspan>
<tspan x="10" y="234">  │ │ └── ms@0.7.2 </tspan>
<tspan x="10" y="250">  │ ├── fresh@0.2.0 </tspan>
<tspan x="10" y="266">  │ ├── methods@0.0.1 </tspan>
<tspan x="10" y="282">  │ ├── mkdirp@0.3.5 </tspan>
<tspan x="10" y="298">  │ ├── range-parser@0.0.4 </tspan>
<tspan x="10" y="314">  │ └─┬ send@0.1.4 </tspan>
<tspan x="10" y="330">  │   └── mime@1.2.11 </tspan>
<tspan x="10" y="346">  ├─┬ needle@0.5.9 </tspan>
<tspan x="10" y="362">  │ ├── iconv-lite@0.4.15 </tspan>
<tspan x="10" y="378">  │ └── qs@6.4.0 </tspan>
<tspan x="10" y="394">  ├─┬ passport@0.1.18 </tspan>
<tspan x="10" y="410">  │ ├── pause@0.0.1 </tspan>
<tspan x="10" y="426">  │ └── pkginfo@0.2.3 </tspan>
<tspan x="10" y="442">  └─┬ passport-google-oauth@0.1.5 </tspan>
<tspan x="10" y="458">    └─┬ passport-oauth@0.1.15 </tspan>
<tspan x="10" y="474">      └── oauth@0.9.15</tspan>
</text>
</svg>
